<svg xmlns="http://www.w3.org/2000/svg" viewBox="0 0 300 100" width="100%" height="100">
  <g fill="#0f172a">
    <!-- Y -->
    <path d="M 15 20 L 33 20 L 45 45 L 57 20 L 75 20 L 53 58 L 53 80 L 37 80 L 37 58 Z" />
    
    <!-- H 1 -->
    <path d="M 70 20 L 86 20 L 86 42 L 106 42 L 106 20 L 122 20 L 122 80 L 106 80 L 106 56 L 86 56 L 86 80 L 70 80 Z" />
    
    <!-- M (Point Color) -->
    <path d="M 120 20 L 138 20 L 152 52 L 166 20 L 184 20 L 184 80 L 169 80 L 169 40 L 157 68 L 147 68 L 135 40 L 135 80 L 120 80 Z" fill="#b45309" />
    
    <!-- H 2 -->
    <path d="M 182 20 L 198 20 L 198 42 L 218 42 L 218 20 L 234 20 L 234 80 L 218 80 L 218 56 L 198 56 L 198 80 L 182 80 Z" />
  </g>
</svg>
